<?xml version="1.0" encoding="utf-8"?>
<!-- Generator: Adobe Illustrator 26.1.0, SVG Export Plug-In . SVG Version: 6.00 Build 0)  -->
<svg version="1.1" id="Layer_1" xmlns="http://www.w3.org/2000/svg" xmlns:xlink="http://www.w3.org/1999/xlink" x="0px" y="0px"
	 viewBox="0 0 472 416" style="enable-background:new 0 0 472 416;" xml:space="preserve">
<style type="text/css">
	.st0{opacity:0.8;fill:#0091e8;enable-background:new    ;}
</style>
<g>
	<path class="st0" d="M290.5,198.5c-4.1-2.4-8.9-3.5-14.2-3.5s-10,1.2-14.2,3.5c-4.1,2.4-7.1,5.9-9.4,10c-2.4,4.1-3.5,9.4-3.5,14.7
		c0,5.3,1.2,10.6,3.5,14.7c2.4,4.1,5.9,7.7,9.4,10.6c3.5,2.9,8.9,3.5,14.2,3.5s10-1.2,14.2-3.5c4.1-2.4,7.1-5.9,9.4-10.6
		c2.4-4.1,3.5-9.4,3.5-14.7c0-5.3-1.2-10.6-3.5-14.7C298.1,204.4,294.6,200.9,290.5,198.5z"/>
	<path class="st0" d="M322.7,31.6H106.3c-2.5,0-4.8,1.3-6,3.5l-96.4,170c-1.2,2.1-1.2,4.7,0,6.8L118,411.5c1.2,2.1,3.5,3.5,6,3.5
		h228c2.5,0,4.8-1.3,6-3.5l96.3-169.9c1.2-2.2,1.2-4.9-0.2-7.1L328.5,34.9C327.2,32.8,325,31.6,322.7,31.6z M191.4,267.6h-11.8
		l-21.8-51.3l-20.7,51.3h-11.2l-29.5-88.5h17.1l19.5,60.7l20.7-46.6h10l20.7,46l18.9-60.2h17.1L191.4,267.6z M315.3,246.3
		c-3.5,6.5-8.3,11.8-14.8,15.9c-6.5,4.1-13.6,5.9-21.2,5.9c-5.9,0-11.2-1.2-16.5-3.5s-9.4-5.3-13-8.8v47.2h-17.7V180.9h17.7v12.4
		c2.9-3.5,7.1-7.1,12.4-9.4c5.3-2.9,11.2-4.1,16.5-4.1c8.3,0,15.3,1.8,21.2,5.9c6.5,4.1,11.2,8.8,14.8,15.9c3.5,6.5,5.3,14.2,5.3,23
		C320.6,232.2,318.8,239.8,315.3,246.3z M380.2,195.7h-18.9v71.8h-15.9v-70.8h-13v-15.9h13v-11.2c0-7.7,2.4-13.6,6.5-18.9
		c4.7-4.7,10-7.1,17.1-7.1c3.5,0,6.5,0.6,9.4,1.8s5.3,2.9,7.1,5.3l-5.3,13c-1.2-1.2-2.9-2.4-4.1-3.5c-2-0.7-3.3-1.3-5.5-1.1
		c-5.3,0.5-9.3,5-9.3,10.3v10.9h18.9L380.2,195.7z"/>
	<g>
		<path class="st0" d="M232.1,180.9h17.7c0,0,0-1.1,0-1.1v13.5c0,0,0,0,0,0c2.9-3.5,7.1-7.1,12.4-9.4c5.3-2.9,11.2-4.1,16.5-4.1
			c8.3,0,15.3,1.8,21.2,5.9c6.5,4.1,11.2,8.8,14.8,15.9c1.2,2.4,2.4,4.2,2.9,7.1c0,0,0,0,0,0h27.7c0,0,0-11.8,0-11.8
			c0,0-0.6,0-0.6,0h-12.4c0,0,0,0,0,0v-15.9c0,0,0,0,0,0h13c0,0,0,0,0,0v-11.2c0-7.7,2.4-13.6,6.5-18.9c0,0,0,0,0,0
			c4.7-4.7,10-7.1,17.1-7.1c3.5,0,6.5,0.6,9.4,1.8c2.9,1.2,5.3,2.9,7.1,5.3c0,0,0,0,0,0l-5.3,13c0,0,0,0,0,0
			c-1.2-1.2-2.9-2.3-4.1-3.5c0,0,0,0,0,0c-2-0.7-3.3-1.3-5.5-1.1c-5.3,0.5-9.3,5-9.3,10.3v10.9c0,0,0,0,0,0h18.9c0,0,0,0,0,0v15.3
			c0,0,0,0,0,0h-18.9c0,0,0,0,0,0v11.8c0,0,0,0,0,0h100.8c5.3,0,8.6-5.7,6-10.3L357.9,4.5c-1.2-2.1-3.5-3.5-6-3.5H132.1
			c-5.3,0-8.6,5.8-5.9,10.4L232,187.9c0,0,0,0,0,0l0-8.2C232.1,179.7,232.1,180.9,232.1,180.9z"/>
		<path class="st0" d="M290.5,198.5c-4.1-2.4-8.9-3.5-14.2-3.5s-10,1.2-14.2,3.5c-4.1,2.4-7.1,5.9-9.4,10l47.3,0.1
			C297.1,203.2,294.6,200.9,290.5,198.5z"/>
	</g>
</g>
</svg>
